<?xml version="1.0" encoding="UTF-8"?>
<!DOCTYPE svg PUBLIC "-//W3C//DTD SVG 1.1//EN" "http://www.w3.org/Graphics/SVG/1.1/DTD/svg11.dtd">
<!-- Creator: CorelDRAW 2019 (64-Bit) -->
<svg xmlns="http://www.w3.org/2000/svg" xml:space="preserve" width="195.002mm" height="153.337mm" version="1.1" style="shape-rendering:geometricPrecision; text-rendering:geometricPrecision; image-rendering:optimizeQuality; fill-rule:evenodd; clip-rule:evenodd"
viewBox="0 0 195.022 153.3527"
 xmlns:xlink="http://www.w3.org/1999/xlink"
 xmlns:xodm="http://www.corel.com/coreldraw/odm/2003">
 <defs>
  <style type="text/css">
   <![CDATA[
    .fil0 {fill:#D14137}
   ]]>
  </style>
 </defs>
 <g id="Layer_x0020_1">
  <metadata id="CorelCorpID_0Corel-Layer"/>
  <path class="fil0" d="M108.4315 5.7293l-9.4831 5.9046 0 91.7933 9.4831 -5.3687 0 -92.3292zm-43.6587 91.9717l0 0 2.4516 -2.2014 2.4331 -2.164 2.3973 -2.0943 2.3622 -2.021 2.2912 -1.9328 2.237 -1.8241 2.1649 -1.7176 2.0943 -1.592 -0.018 -0.1608 0.018 -0.3758 -0.0899 -3.9185 -0.0365 -2.5048 -0.0531 -1.1093 -0.0352 -1.0557 -0.0719 -1.0205 -0.1076 -0.9477 -0.1428 -0.8943 -0.1602 -0.859 -0.1972 -0.7869 -0.2167 -0.7547 -0.2503 -0.6975 -0.2679 -0.6443 -0.2862 -0.6077 -0.2869 -0.5723 -0.3223 -0.519 -0.3043 -0.4828 -0.3399 -0.4482 -0.6618 -0.787 -0.6617 -0.6267 -0.6443 -0.5191 -0.5903 -0.4115 -0.5367 -0.3043 -0.4471 -0.2147 -0.3398 -0.1432 -0.2855 -0.1259 -0.6987 -0.0531 -0.6618 -0.0533 -0.6618 0 -0.6622 0.0177 -1.253 0.1075 -1.1988 0.2147 -1.1633 0.3218 -1.1087 0.3945 -1.0562 0.4826 -1.0018 0.5542 -0.9661 0.6079 -0.912 0.6621 -0.8767 0.7339 -0.8239 0.7514 -0.7693 0.8045 -0.7338 0.8239 -0.6794 0.8591 -0.6443 0.8575 -0.5902 0.8591 -0.5545 0.8591 -0.5193 0.8589 -0.466 0.8409 -0.8232 1.592 -0.6619 1.4311 -0.5017 1.2353 -0.3399 0.9472 -0.1966 0.6092 -0.0532 0.2334 -0.393 1.3602 -0.34 1.3414 -0.6265 2.6126 -0.5003 2.4869 -0.3931 2.3629 -0.2862 2.2727 -0.1972 2.1473 -0.1076 2.0587 -0.0183 1.0018 0 0.9484 -9.6636 8.3194 -8.6775 7.4075 -3.5067 3.0061 -2.7376 2.3257 -2.4331 2.0398 1.6474 -3.7753 1.7179 -3.7759 1.8063 -3.7745 1.8606 -3.7754 1.9153 -3.7569 1.9501 -3.7214 2.0034 -3.6859 2.021 -3.6506 2.0403 -3.6151 2.0575 -3.5255 4.1157 -6.8698 4.0432 -6.5495 3.9005 -6.1191 3.7214 -5.6717 3.4359 -5.1182 3.1134 -4.5092 2.7022 -3.8465 3.883 -5.3868 1.4499 -1.8956 -5.0098 -8.9644 -0.8058 0.3396 -1.1093 0.5904 -1.3957 0.8232 -1.6634 1.0382 -1.8976 1.2354 -2.1285 1.3956 -4.8133 3.3104 -5.422 3.8114 -5.8863 4.1871 -6.1374 4.4554 -6.2275 4.5447 -12.0603 8.8927 -10.3415 7.6939 -9.8959 7.4439 6.4424 8.9278 5.9935 -4.7405 13.4199 -10.6118 7.3189 -5.7258 6.5483 -5.0629 2.7196 -2.0579 2.2007 -1.6458 1.5746 -1.1277 0.5196 -0.34 0.3218 -0.1783 -0.9486 1.5741 -1.1455 1.9326 -1.574 2.6845 -1.9504 3.4354 -2.3255 4.1157 -2.6842 4.8128 -3.0066 5.4931 -3.3105 6.1377 -1.7706 3.3105 -1.8255 3.4537 -1.896 3.6141 -1.9506 3.7578 -4.0797 7.9625 -2.1287 4.2041 -2.1828 4.3302 -2.2183 4.4728 -2.2543 4.6181 -2.3091 4.7407 -2.3442 4.8679 -2.3796 5.0099 -2.4153 5.1357 6.6214 8.5708 1.0192 -1.0561 2.9346 -2.9875 4.581 -4.598 5.9766 -5.9407 7.1214 -6.9777 7.9982 -7.7658 4.2404 -4.0613 4.3845 -4.1684 4.4551 -4.2048 4.5274 -4.2052 0.5542 1.3059 0.6443 1.2353 0.6974 1.1268 0.7518 1.0382 0.8046 0.9666 0.8589 0.8765 0.912 0.7883 0.9312 0.6973 0.9842 0.6439 1.038 0.5735 1.0373 0.4827 1.0914 0.4295 1.1088 0.3586 1.128 0.303 1.1454 0.2503 1.1637 0.1972 1.0201 0.0896 1.0017 0 0.9841 -0.1085 0.9484 -0.1795 0.9312 -0.2679 0.9122 -0.3394 0.8764 -0.4127 0.8414 -0.4827 0.8226 -0.5195 0.7877 -0.5898 0.7694 -0.6267 0.734 -0.6626 0.6973 -0.6787 0.68 -0.7161 0.6441 -0.7339 0.6088 -0.7527 0.5721 -0.7518 0.5549 -0.7515 0.9837 -1.4667 0.8413 -1.3781 0.7162 -1.252 0.5548 -1.0732 0.4115 -0.8227 0.3574 -0.7337 0 7.1391 8.4101 -5.1889 0 -92.6914 -9.4839 6.2621 -0.0352 6.6551 0 15.5856 0.0352 31.796 -0.0176 4.4741 -0.0364 4.0256 -0.0707 1.8962 -0.1252 1.7895 -0.1783 1.7545 -0.2511 1.7004 -0.3399 1.6634 -0.447 1.6461 -0.5721 1.6283 -0.6809 1.6284 -0.3929 0.8222 -0.4296 0.8225 -0.984 1.6649 -0.5367 0.859 -0.6079 0.8588 -1.3059 1.7532 -0.7342 0.8589 -0.716 0.7339 -0.6798 0.6435 -0.6798 0.5546 -0.6619 0.4647 -0.6442 0.3943 -0.6262 0.3042 -0.5902 0.2323 -0.5899 0.1603 -0.5722 0.1085 -0.5374 0.0543 -0.5366 -0.0188 -0.5007 -0.054 -0.4834 -0.09 -0.465 -0.1427 -0.447 -0.1604 -0.4119 -0.1971 -0.3926 -0.2147 -0.7162 -0.4826 -0.6087 -0.519 -0.5197 -0.5192 -0.4112 -0.4651 -0.3043 -0.3925 -0.2328 -0.3399 -0.3393 -0.7695 -0.2504 -0.6981 -0.2147 -0.6623 -0.1616 -0.6087 -0.2502 -1.1457 -0.2148 -1.1269 0 -0.1959 -0.005 0zm-1.2529 -10.378l0 0 0 0.001 -0.1796 0 0.0901 -1.0382 0.107 -0.9841 0.2691 -1.8064 0.2865 -1.7003 0.3224 -1.628 0.1602 -0.8946 0.2147 -0.8588 0.2326 -0.8047 0.2498 -0.7518 0.2869 -0.7157 0.3218 -0.6623 0.3412 -0.6263 0.3574 -0.5547 0.375 -0.5015 0.4118 -0.4649 0.4294 -0.3927 0.4295 -0.3574 0.4651 -0.2868 0.4645 -0.2327 0.4826 -0.1793 0.5016 -0.125 0.3043 -0.0363 0.2868 0 0.2679 0.0363 0.2503 0.0888 0.2323 0.1251 0.2147 0.1604 0.1958 0.1794 0.1791 0.2323 0.3399 0.5016 0.2691 0.6075 0.2147 0.6443 0.1792 0.6798 0.1427 0.6973 0.1085 0.6799 0.125 1.2171 0.0898 1.1624 -3.5432 3.043 -6.4775 5.5463zm58.5093 -23.262l0 0 19.505 -12.5256 0.07 -0.9306 0.0711 -1.1094 0.0371 -1.4319 0 -1.6814 -0.0536 -1.8972 -0.1259 -2.0403 -0.2328 -2.1119 -0.1602 -1.055 -0.1972 -1.0574 -0.2328 -1.0368 -0.2685 -1.0204 -0.3026 -0.9834 -0.3589 -0.9492 -0.3957 -0.8944 -0.4451 -0.8587 -0.5014 -0.7698 -0.5547 -0.715 -0.6096 -0.6451 -0.3218 -0.2849 -0.3397 -0.252 -0.3588 -0.2492 -0.3738 -0.2151 -0.3931 -0.1794 -0.3959 -0.1602 -0.4285 -0.1438 -0.43 -0.1082 -0.4636 -0.0712 -0.4658 -0.0534 -0.9122 0 -0.8767 0.0383 -0.8569 0.089 -0.8245 0.1247 -0.8221 0.1794 -0.7883 0.2328 -0.7693 0.2671 -0.7515 0.3054 -0.7151 0.3396 -0.7174 0.3752 -0.6794 0.4109 -0.6623 0.4478 -0.643 0.4835 -0.6276 0.4999 -0.6086 0.5192 -0.5723 0.5547 -0.5726 0.5726 -0.5377 0.5904 -1.0385 1.2353 -0.9464 1.2875 -0.8778 1.3244 -0.8221 1.3422 -0.735 1.3604 -0.6621 1.3248 -0.5902 1.3061 -0.3219 0.7693 -0.2866 0.8235 -0.3035 0.8769 -0.2863 0.9485 -0.5538 2.0399 -0.5003 2.2181 -0.4483 2.3445 -0.3762 2.4694 -0.303 2.559 -0.1266 1.2885 -0.0893 1.306 -0.0708 1.3064 -0.0344 1.3058 -0.019 1.2886 0.019 1.2884 0.0532 1.2881 0.0705 1.2532 0.1086 1.2528 0.1427 1.2165 0.1972 1.1808 0.2134 1.1457 0.2503 1.1092 0.3056 1.0738 0.3394 1.0378 0.393 0.9663 0.4295 0.9309 0.4848 0.8766 0.5168 0.8059 0.5382 0.7681 0.5377 0.7338 0.5535 0.6799 0.5723 0.6268 0.5747 0.5898 0.5899 0.5546 0.5898 0.5002 0.6091 0.4483 0.6067 0.4295 0.6086 0.3751 0.6275 0.3399 0.6091 0.2858 0.6254 0.2686 0.643 0.2136 0.6276 0.1969 0.6454 0.1429 0.6254 0.1083 0.643 0.0712 0.6277 0.0541 0.6454 0 0.6254 -0.0189 0.6275 -0.0708 0.6255 -0.0895 0.6275 -0.1076 0.6275 -0.1603 1.2156 -0.3762 1.1988 -0.5003 1.1623 -0.6268 1.0909 -0.6798 1.0381 -0.7337 0.9862 -0.787 0.9464 -0.8047 0.878 -0.8414 0.8395 -0.8777 0.7891 -0.8933 0.7327 -0.8943 0.6793 -0.9132 0.6439 -0.9307 0.5917 -0.9308 0.5355 -0.9122 0.5014 -0.9121 0.4479 -0.9121 0.3929 -0.8766 0.359 -0.8766 0 6.4406 9.4835 -5.3672 0.0177 -3.024 0 -7.2464 -0.0177 -15.6749 0.052 -1.36 0.1629 -1.5208 0.2671 -1.6461 0.3588 -1.7178 0.4479 -1.7887 0.5191 -1.8257 0.5904 -1.8244 0.6437 -1.8244 0.7164 -1.7724 0.7697 -1.6997 0.8041 -1.6286 0.8587 -1.4848 0.8767 -1.3422 0.4464 -0.6095 0.4657 -0.5712 0.4492 -0.5013 0.4628 -0.4657 0.467 -0.393 0.482 -0.3575 -0.126 0.4479 -0.2848 1.1628 -0.3218 1.7354 -0.1451 1.019 -0.1233 1.0916 -0.0904 1.1464 -0.0191 1.1806 0.0369 1.1806 0.1069 1.1806 0.2149 1.145 0.1246 0.5548 0.1795 0.5369 0.1972 0.5192 0.2315 0.5 0.2505 0.4834 0.3054 0.4286 0.089 0.1425 0.2671 0.3054 0.4657 0.4108 0.304 0.2506 0.3588 0.2329 0.4108 0.2314 0.4835 0.2506 0.5369 0.2151 0.6095 0.1972 0.6617 0.1794 0.7327 0.1246 0.8054 0.1072 0.8944 0.053 1.5203 0.0365 1.5397 0.0181 1.5217 0.0187 1.4311 0.0708 0.663 0.072 0.626 0.1251 0.5903 0.1428 0.5191 0.2146 0.4657 0.2498 0.3904 0.3393 0.1793 0.1789 0.1425 0.196 0.1259 0.2327 0.1233 0.2512 0.3588 1.0017 0.1425 0.5003 0.1095 0.5015 0.0521 0.5002 0 0.5192 -0.0521 0.5191 -0.1246 0.5371 -0.2164 0.5546 -0.3026 0.5723 -0.3766 0.5898 -0.5001 0.6079 -0.6094 0.6443 -0.7315 0.6443 -0.8779 0.6974 -0.9834 0.7162 -0.8958 0.7159 -1.0354 0.7162 -1.3601 0.8946 -0.7889 0.4646 -0.8588 0.4826 -0.9314 0.465 -0.9821 0.4646 -1.0381 0.4474 -1.0916 0.393 -1.1286 0.3764 -1.1614 0.3043 -3.0228 0.8045 -1.9874 0.5015 -1.4314 0.3043 8.7673 7.8731 0.6794 -0.2499 1.8792 -0.7871 1.3065 -0.5721 1.4847 -0.6987 1.6287 -0.8046 1.7531 -0.9311 1.8258 -1.056 1.8613 -1.1454 1.8601 -1.2707 0.9122 -0.6619 0.8958 -0.6987 0.8765 -0.7338 0.8587 -0.7515 0.8219 -0.7692 0.8068 -0.8047 0.7506 -0.8239 0.7163 -0.8408 0.6629 -0.8766 0.6068 -0.8947 1.0204 -1.6458 0.8957 -1.5388 0.7521 -1.4321 0.6081 -1.3238 0.5191 -1.235 0.3931 -1.1637 0.2863 -1.0913 0.1972 -1.0016 0.1082 -0.9665 0.0355 -0.8944 -0.0547 -0.8587 -0.1069 -0.8232 -0.1629 -0.7876 -0.2122 -0.752 -0.2508 -0.7506 -0.2684 -0.7519 -0.2328 -0.4821 -0.2506 -0.4656 -0.2862 -0.4465 -0.3218 -0.3931 -0.3589 -0.3766 -0.3739 -0.3574 -0.4122 -0.3218 -0.4301 -0.3041 -0.4285 -0.2876 -0.4656 -0.2492 -0.9684 -0.4478 -0.982 -0.3575 -1.0204 -0.2862 -1.0027 -0.2328 -0.982 -0.1794 -0.9313 -0.1247 -0.878 -0.0904 -1.4504 -0.089 -0.9301 -0.0534 -0.1972 0.0534 -0.5355 0.0712 -0.7521 0.0356 -0.8957 -0.0534 -0.4628 -0.0534 -0.467 -0.1082 -0.4451 -0.1424 -0.4315 -0.1958 -0.3739 -0.2506 -0.341 -0.3233 -0.2684 -0.3738 -0.1957 -0.4479 -0.1452 -0.4999 -0.0891 -0.5548 -0.0534 -0.5904 0 -0.6437 0.0534 -0.6616 0.0891 -0.7164 0.1602 -0.7341 0.1972 -0.752 0.2698 -0.7876 0.3026 -0.7862 0.3767 -0.8053 0.4287 -0.8232 0.4833 -0.8232 0.5534 -0.8232 0.6273 -0.8053 0.6794 -0.8232 1.4121 -1.4848 1.2367 -1.2532 1.0725 -1.0382 0.8931 -0.8231 0.6985 -0.6096 0.5192 -0.4108 0.3054 -0.2329 0.1246 -0.0356 -3.5804 -9.5013 -0.7847 0.5013 -0.8958 0.626 -1.1821 0.8766 -1.4119 1.1464 -1.6108 1.4121 -0.8588 0.8245 -0.8931 0.8766 -0.9135 0.9478 -0.9313 1.0382 -0.9656 1.0204 -0.878 1.0217 -0.8219 1.0013 -0.7355 0.9834 -0.6958 0.9313 -0.6095 0.9123 -1.056 1.6463 -0.7863 1.3956 -0.556 1.056 -0.3218 0.6972 -0.0892 0.2328 -3.0419 -8.5891 -0.1259 0.126 -0.3753 0.2492 -1.2696 0.9314 -0.7699 0.626 -0.8218 0.7163 -0.7697 0.8054 -0.3766 0.4109 -0.3218 0.43 -0.7329 0.9478 -0.6642 0.9848 -0.5727 0.9478 -0.482 0.8944 -0.6986 1.3956 -0.2493 0.5726 0 -4.4912 -9.4848 5.3678 -0.0343 2.3804 -0.0178 5.8511 0.0521 14.6722 -0.0698 3.167 -0.1438 3.1137 -0.2342 3.0415 -0.3561 2.8979 -0.2164 1.378 -0.2492 1.3236 -0.3041 1.2707 -0.3246 1.2166 -0.356 1.1268 -0.3945 1.0738 -0.4465 0.984 -0.4848 0.8766 -0.5355 0.8766 -0.5904 0.8944 -0.6081 0.8943 -0.6629 0.8945 -0.6972 0.8766 -0.7343 0.8414 -0.7341 0.8045 -0.7697 0.7695 -0.7698 0.6973 -0.7849 0.6263 -0.7884 0.5547 -0.7884 0.4475 -0.7689 0.3574 -0.7518 0.2324 -0.3743 0.072 -0.3761 0.0351 -0.3583 0 -0.3567 -0.0351 -1.0036 -0.1972 -0.5536 -0.1603 -0.5902 -0.1971 -0.6087 -0.2503 -0.6087 -0.3219 -0.6259 -0.393 -0.6086 -0.5016 -0.5723 -0.5899 -0.5557 -0.6973 -0.2502 -0.412 -0.2499 -0.4293 -0.2325 -0.4659 -0.2157 -0.5004 -0.1959 -0.5369 -0.1796 -0.5723 -0.1603 -0.6075 -0.1448 -0.6623 -0.1243 -0.6974 -0.1084 -0.7337 -0.0707 -0.7871 -0.0364 -0.8409 -0.0531 -0.4664 0.0531 -0.4114 0 -0.1939 0.0007 0zm-0.5346 -10.7358l0 0 0.1959 -1.5563 0.2692 -1.4852 0.3584 -1.4124 0.4293 -1.4324 0.5723 -1.7179 0.6618 -1.6104 0.3588 -0.7519 0.3762 -0.7158 0.412 -0.6443 0.4114 -0.5902 0.4295 -0.5192 0.4637 -0.4294 0.4662 -0.3578 0.5002 -0.2684 0.5004 -0.1438 0.2691 -0.0356 0.2686 -0.0178 0.2693 0.0178 0.2666 0.0548 0.2854 0.089 0.2867 0.1068 0.3567 0.1972 0.3238 0.1961 0.2847 0.2325 0.2344 0.2326 0.2138 0.25 0.1793 0.2866 0.1427 0.286 0.1264 0.3218 0.1792 0.6983 0.1063 0.7874 0.1791 1.8957 -0.0187 0.6623 -0.0164 0.4822 -0.0552 0.3399 -0.0712 0.1972 -0.0707 0.1071 -0.0532 0.0356 -0.0554 -0.0176 -0.0189 -0.0336 -10.0183 6.2627z"/>
 </g>
</svg>
